<svg width="360" height="409" viewBox="0 0 360 409" fill="none" xmlns="http://www.w3.org/2000/svg">
<g filter="url(#filter0_d)">
<path d="M20 14C20 11.7909 21.7909 10 24 10H336C338.209 10 340 11.7909 340 14V375C340 377.209 338.209 379 336 379H24C21.7909 379 20 377.209 20 375V14Z" fill="white"/>
<path d="M20.5 14C20.5 12.067 22.067 10.5 24 10.5H336C337.933 10.5 339.5 12.067 339.5 14V375C339.5 376.933 337.933 378.5 336 378.5H24C22.067 378.5 20.5 376.933 20.5 375V14Z" stroke="#1F2041" stroke-opacity="0.25"/>
</g>
<rect opacity="0.25" x="61.1367" y="244" width="159.502" height="40" fill="url(#paint0_linear)"/>
<path d="M60.4305 147.232V148H54.5385V147.388L58.0305 143.968C58.4705 143.536 58.7665 143.164 58.9185 142.852C59.0785 142.532 59.1585 142.212 59.1585 141.892C59.1585 141.396 58.9865 141.012 58.6425 140.74C58.3065 140.46 57.8225 140.32 57.1905 140.32C56.2065 140.32 55.4425 140.632 54.8985 141.256L54.2865 140.728C54.6145 140.344 55.0305 140.048 55.5345 139.84C56.0465 139.632 56.6225 139.528 57.2625 139.528C58.1185 139.528 58.7945 139.732 59.2905 140.14C59.7945 140.54 60.0465 141.092 60.0465 141.796C60.0465 142.228 59.9505 142.644 59.7585 143.044C59.5665 143.444 59.2025 143.904 58.6665 144.424L55.8105 147.232H60.4305ZM64.1308 139.528C65.2428 139.528 66.0948 139.896 66.6868 140.632C67.2788 141.36 67.5748 142.392 67.5748 143.728C67.5748 144.664 67.4148 145.456 67.0948 146.104C66.7748 146.752 66.3268 147.244 65.7508 147.58C65.1748 147.908 64.5028 148.072 63.7348 148.072C62.9028 148.072 62.2388 147.92 61.7428 147.616L62.0908 146.92C62.4908 147.184 63.0348 147.316 63.7228 147.316C64.6508 147.316 65.3788 147.024 65.9068 146.44C66.4348 145.848 66.6988 144.992 66.6988 143.872C66.6988 143.664 66.6868 143.436 66.6628 143.188C66.4548 143.644 66.1228 144 65.6668 144.256C65.2108 144.504 64.6868 144.628 64.0948 144.628C63.5428 144.628 63.0508 144.524 62.6188 144.316C62.1948 144.108 61.8628 143.816 61.6228 143.44C61.3828 143.056 61.2628 142.612 61.2628 142.108C61.2628 141.596 61.3868 141.144 61.6348 140.752C61.8828 140.36 62.2228 140.06 62.6548 139.852C63.0948 139.636 63.5868 139.528 64.1308 139.528ZM64.2268 143.896C64.6508 143.896 65.0228 143.816 65.3428 143.656C65.6708 143.496 65.9268 143.276 66.1108 142.996C66.2948 142.716 66.3868 142.404 66.3868 142.06C66.3868 141.74 66.2988 141.444 66.1228 141.172C65.9548 140.9 65.7028 140.68 65.3668 140.512C65.0308 140.344 64.6308 140.26 64.1668 140.26C63.5588 140.26 63.0628 140.428 62.6788 140.764C62.3028 141.092 62.1148 141.532 62.1148 142.084C62.1148 142.636 62.3028 143.076 62.6788 143.404C63.0628 143.732 63.5788 143.896 64.2268 143.896Z" fill="#1F2041" fill-opacity="0.25"/>
<path d="M97.1325 143.2C98.0125 143.248 98.6805 143.488 99.1365 143.92C99.6005 144.344 99.8325 144.9 99.8325 145.588C99.8325 146.068 99.7165 146.496 99.4845 146.872C99.2525 147.24 98.9085 147.532 98.4525 147.748C97.9965 147.964 97.4405 148.072 96.7845 148.072C96.1765 148.072 95.6005 147.976 95.0565 147.784C94.5205 147.584 94.0885 147.32 93.7605 146.992L94.1805 146.308C94.4605 146.596 94.8325 146.832 95.2965 147.016C95.7605 147.192 96.2565 147.28 96.7845 147.28C97.4725 147.28 98.0045 147.132 98.3805 146.836C98.7565 146.532 98.9445 146.116 98.9445 145.588C98.9445 145.068 98.7565 144.66 98.3805 144.364C98.0045 144.068 97.4365 143.92 96.6765 143.92H96.0765V143.284L98.4045 140.368H94.1085V139.6H99.5085V140.212L97.1325 143.2ZM104.398 148.072C103.75 148.072 103.17 147.9 102.658 147.556C102.154 147.212 101.758 146.72 101.47 146.08C101.19 145.432 101.05 144.672 101.05 143.8C101.05 142.928 101.19 142.172 101.47 141.532C101.758 140.884 102.154 140.388 102.658 140.044C103.17 139.7 103.75 139.528 104.398 139.528C105.046 139.528 105.622 139.7 106.126 140.044C106.638 140.388 107.038 140.884 107.326 141.532C107.614 142.172 107.758 142.928 107.758 143.8C107.758 144.672 107.614 145.432 107.326 146.08C107.038 146.72 106.638 147.212 106.126 147.556C105.622 147.9 105.046 148.072 104.398 148.072ZM104.398 147.28C104.886 147.28 105.314 147.144 105.682 146.872C106.058 146.6 106.35 146.204 106.558 145.684C106.766 145.164 106.87 144.536 106.87 143.8C106.87 143.064 106.766 142.436 106.558 141.916C106.35 141.396 106.058 141 105.682 140.728C105.314 140.456 104.886 140.32 104.398 140.32C103.91 140.32 103.478 140.456 103.102 140.728C102.734 141 102.446 141.396 102.238 141.916C102.03 142.436 101.926 143.064 101.926 143.8C101.926 144.536 102.03 145.164 102.238 145.684C102.446 146.204 102.734 146.6 103.102 146.872C103.478 147.144 103.91 147.28 104.398 147.28Z" fill="#1F2041" fill-opacity="0.25"/>
<path d="M138.812 143.2C139.692 143.248 140.36 143.488 140.816 143.92C141.28 144.344 141.512 144.9 141.512 145.588C141.512 146.068 141.396 146.496 141.164 146.872C140.932 147.24 140.588 147.532 140.132 147.748C139.676 147.964 139.12 148.072 138.464 148.072C137.856 148.072 137.28 147.976 136.736 147.784C136.2 147.584 135.768 147.32 135.44 146.992L135.86 146.308C136.14 146.596 136.512 146.832 136.976 147.016C137.44 147.192 137.936 147.28 138.464 147.28C139.152 147.28 139.684 147.132 140.06 146.836C140.436 146.532 140.624 146.116 140.624 145.588C140.624 145.068 140.436 144.66 140.06 144.364C139.684 144.068 139.116 143.92 138.356 143.92H137.756V143.284L140.084 140.368H135.788V139.6H141.188V140.212L138.812 143.2ZM145.058 139.6V148H144.194V140.368H142.214V139.6H145.058Z" fill="#1F2041" fill-opacity="0.25"/>
<path d="M181.284 139.158V147.558H180.42V139.926H178.44V139.158H181.284Z" fill="#1F2041" fill-opacity="0.5"/>
<path d="M223.325 146.79V147.558H217.433V146.946L220.925 143.526C221.365 143.094 221.661 142.722 221.813 142.41C221.973 142.09 222.053 141.77 222.053 141.45C222.053 140.954 221.881 140.57 221.537 140.298C221.201 140.018 220.717 139.878 220.085 139.878C219.101 139.878 218.337 140.19 217.793 140.814L217.181 140.286C217.509 139.902 217.925 139.606 218.429 139.398C218.941 139.19 219.517 139.086 220.157 139.086C221.013 139.086 221.689 139.29 222.185 139.698C222.689 140.098 222.941 140.65 222.941 141.354C222.941 141.786 222.845 142.202 222.653 142.602C222.461 143.002 222.097 143.462 221.561 143.982L218.705 146.79H223.325Z" fill="#1F2041" fill-opacity="0.5"/>
<path d="M260.343 142.758C261.223 142.806 261.891 143.046 262.347 143.478C262.811 143.902 263.043 144.458 263.043 145.146C263.043 145.626 262.927 146.054 262.695 146.43C262.463 146.798 262.119 147.09 261.663 147.306C261.207 147.522 260.651 147.63 259.995 147.63C259.387 147.63 258.811 147.534 258.267 147.342C257.731 147.142 257.299 146.878 256.971 146.55L257.391 145.866C257.671 146.154 258.043 146.39 258.507 146.574C258.971 146.75 259.467 146.838 259.995 146.838C260.683 146.838 261.215 146.69 261.591 146.394C261.967 146.09 262.155 145.674 262.155 145.146C262.155 144.626 261.967 144.218 261.591 143.922C261.215 143.626 260.647 143.478 259.887 143.478H259.287V142.842L261.615 139.926H257.319V139.158H262.719V139.77L260.343 142.758Z" fill="#1F2041" fill-opacity="0.5"/>
<path d="M303.922 145.35H302.242V147.558H301.378V145.35H296.638V144.726L301.09 139.158H302.05L297.754 144.582H301.402V142.638H302.242V144.582H303.922V145.35Z" fill="#1F2041" fill-opacity="0.5"/>
<path d="M60.8018 99.6V108H58.8698V101.184H55.0778V108H53.1458V99.6H60.8018ZM62.74 101.544H64.6V104.064H67.408V101.544H69.28V108H67.408V105.588H64.6V108H62.74V101.544Z" fill="#BC9CFF"/>
<path d="M100.194 103.62C100.706 103.772 101.098 104.02 101.37 104.364C101.642 104.708 101.778 105.132 101.778 105.636C101.778 106.38 101.494 106.96 100.926 107.376C100.366 107.792 99.5623 108 98.5143 108H94.3743V99.6H98.2863C99.2623 99.6 100.022 99.788 100.566 100.164C101.11 100.54 101.382 101.076 101.382 101.772C101.382 102.188 101.278 102.556 101.07 102.876C100.862 103.188 100.57 103.436 100.194 103.62ZM96.3063 103.08H98.1183C98.5423 103.08 98.8623 102.996 99.0783 102.828C99.2943 102.652 99.4023 102.396 99.4023 102.06C99.4023 101.732 99.2903 101.48 99.0663 101.304C98.8503 101.128 98.5343 101.04 98.1183 101.04H96.3063V103.08ZM98.4423 106.56C99.3543 106.56 99.8103 106.2 99.8103 105.48C99.8103 104.784 99.3543 104.436 98.4423 104.436H96.3063V106.56H98.4423ZM108.596 103.08H106.412V108H104.552V103.08H102.368V101.544H108.596V103.08Z" fill="#BC9CFF"/>
<path d="M137.383 108.144C136.527 108.144 135.751 107.96 135.055 107.592C134.367 107.216 133.823 106.7 133.423 106.044C133.031 105.38 132.835 104.632 132.835 103.8C132.835 102.968 133.031 102.224 133.423 101.568C133.823 100.904 134.367 100.388 135.055 100.02C135.751 99.644 136.531 99.456 137.395 99.456C138.123 99.456 138.779 99.584 139.363 99.84C139.955 100.096 140.451 100.464 140.851 100.944L139.603 102.096C139.035 101.44 138.331 101.112 137.491 101.112C136.971 101.112 136.507 101.228 136.099 101.46C135.691 101.684 135.371 102 135.139 102.408C134.915 102.816 134.803 103.28 134.803 103.8C134.803 104.32 134.915 104.784 135.139 105.192C135.371 105.6 135.691 105.92 136.099 106.152C136.507 106.376 136.971 106.488 137.491 106.488C138.331 106.488 139.035 106.156 139.603 105.492L140.851 106.644C140.451 107.132 139.955 107.504 139.363 107.76C138.771 108.016 138.111 108.144 137.383 108.144ZM145.778 101.448C146.378 101.448 146.922 101.588 147.41 101.868C147.906 102.14 148.294 102.528 148.574 103.032C148.854 103.528 148.994 104.108 148.994 104.772C148.994 105.436 148.854 106.02 148.574 106.524C148.294 107.02 147.906 107.408 147.41 107.688C146.922 107.96 146.378 108.096 145.778 108.096C144.954 108.096 144.306 107.836 143.834 107.316V110.328H141.962V101.544H143.75V102.288C144.214 101.728 144.89 101.448 145.778 101.448ZM145.454 106.56C145.934 106.56 146.326 106.4 146.63 106.08C146.942 105.752 147.098 105.316 147.098 104.772C147.098 104.228 146.942 103.796 146.63 103.476C146.326 103.148 145.934 102.984 145.454 102.984C144.974 102.984 144.578 103.148 144.266 103.476C143.962 103.796 143.81 104.228 143.81 104.772C143.81 105.316 143.962 105.752 144.266 106.08C144.578 106.4 144.974 106.56 145.454 106.56Z" fill="#BC9CFF"/>
<path d="M181.001 99.6V108H179.081V104.976C178.353 105.24 177.677 105.372 177.053 105.372C175.925 105.372 175.061 105.104 174.461 104.568C173.861 104.024 173.561 103.244 173.561 102.228V99.6H175.481V102.012C175.481 102.588 175.633 103.024 175.937 103.32C176.249 103.608 176.697 103.752 177.281 103.752C177.921 103.752 178.521 103.628 179.081 103.38V99.6H181.001ZM188.369 103.08H186.185V108H184.325V103.08H182.141V101.544H188.369V103.08Z" fill="#BC9CFF"/>
<path d="M221.257 99.6V108H219.325V101.184H215.533V108H213.601V99.6H221.257ZM228.619 103.08H226.435V108H224.575V103.08H222.391V101.544H228.619V103.08Z" fill="#BC9CFF"/>
<path d="M257.227 108.144C256.371 108.144 255.595 107.96 254.899 107.592C254.211 107.216 253.667 106.7 253.267 106.044C252.875 105.38 252.679 104.632 252.679 103.8C252.679 102.968 252.875 102.224 253.267 101.568C253.667 100.904 254.211 100.388 254.899 100.02C255.595 99.644 256.375 99.456 257.239 99.456C257.967 99.456 258.623 99.584 259.207 99.84C259.799 100.096 260.295 100.464 260.695 100.944L259.447 102.096C258.879 101.44 258.175 101.112 257.335 101.112C256.815 101.112 256.351 101.228 255.943 101.46C255.535 101.684 255.215 102 254.983 102.408C254.759 102.816 254.647 103.28 254.647 103.8C254.647 104.32 254.759 104.784 254.983 105.192C255.215 105.6 255.535 105.92 255.943 106.152C256.351 106.376 256.815 106.488 257.335 106.488C258.175 106.488 258.879 106.156 259.447 105.492L260.695 106.644C260.295 107.132 259.799 107.504 259.207 107.76C258.615 108.016 257.955 108.144 257.227 108.144ZM265.374 101.988C265.99 101.988 266.53 102.116 266.994 102.372C267.458 102.62 267.814 102.972 268.062 103.428C268.318 103.884 268.446 104.412 268.446 105.012C268.446 105.628 268.294 106.176 267.99 106.656C267.694 107.128 267.278 107.496 266.742 107.76C266.206 108.016 265.598 108.144 264.918 108.144C263.79 108.144 262.902 107.784 262.254 107.064C261.614 106.336 261.294 105.272 261.294 103.872C261.294 102.576 261.574 101.544 262.134 100.776C262.702 100 263.57 99.492 264.738 99.252L267.81 98.64L268.062 100.248L265.35 100.788C264.614 100.932 264.066 101.172 263.706 101.508C263.354 101.844 263.146 102.32 263.082 102.936C263.362 102.632 263.698 102.4 264.09 102.24C264.482 102.072 264.91 101.988 265.374 101.988ZM264.93 106.692C265.41 106.692 265.794 106.536 266.082 106.224C266.378 105.912 266.526 105.516 266.526 105.036C266.526 104.548 266.378 104.16 266.082 103.872C265.794 103.584 265.41 103.44 264.93 103.44C264.442 103.44 264.05 103.584 263.754 103.872C263.458 104.16 263.31 104.548 263.31 105.036C263.31 105.524 263.462 105.924 263.766 106.236C264.07 106.54 264.458 106.692 264.93 106.692Z" fill="#BC9CFF"/>
<path d="M299.231 103.62C299.743 103.772 300.135 104.02 300.407 104.364C300.679 104.708 300.815 105.132 300.815 105.636C300.815 106.38 300.531 106.96 299.963 107.376C299.403 107.792 298.599 108 297.551 108H293.411V99.6H297.323C298.299 99.6 299.059 99.788 299.603 100.164C300.147 100.54 300.419 101.076 300.419 101.772C300.419 102.188 300.315 102.556 300.107 102.876C299.899 103.188 299.607 103.436 299.231 103.62ZM295.343 103.08H297.155C297.579 103.08 297.899 102.996 298.115 102.828C298.331 102.652 298.439 102.396 298.439 102.06C298.439 101.732 298.327 101.48 298.103 101.304C297.887 101.128 297.571 101.04 297.155 101.04H295.343V103.08ZM297.479 106.56C298.391 106.56 298.847 106.2 298.847 105.48C298.847 104.784 298.391 104.436 297.479 104.436H295.343V106.56H297.479ZM305.281 108.096C304.593 108.096 303.973 107.956 303.421 107.676C302.877 107.388 302.449 106.992 302.137 106.488C301.833 105.984 301.681 105.412 301.681 104.772C301.681 104.132 301.833 103.56 302.137 103.056C302.449 102.552 302.877 102.16 303.421 101.88C303.973 101.592 304.593 101.448 305.281 101.448C305.961 101.448 306.553 101.592 307.057 101.88C307.569 102.16 307.941 102.564 308.173 103.092L306.721 103.872C306.385 103.28 305.901 102.984 305.269 102.984C304.781 102.984 304.377 103.144 304.057 103.464C303.737 103.784 303.577 104.22 303.577 104.772C303.577 105.324 303.737 105.76 304.057 106.08C304.377 106.4 304.781 106.56 305.269 106.56C305.909 106.56 306.393 106.264 306.721 105.672L308.173 106.464C307.941 106.976 307.569 107.376 307.057 107.664C306.553 107.952 305.961 108.096 305.281 108.096Z" fill="#BC9CFF"/>
<path d="M60.3068 182.602C61.5228 182.602 62.4068 182.822 62.9588 183.262C63.5188 183.694 63.7988 184.302 63.7988 185.086C63.7988 185.574 63.6828 186.01 63.4508 186.394C63.2268 186.778 62.8868 187.082 62.4308 187.306C61.9748 187.522 61.4148 187.63 60.7508 187.63C60.1508 187.63 59.5788 187.534 59.0348 187.342C58.4988 187.142 58.0668 186.878 57.7388 186.55L58.1588 185.866C58.4388 186.154 58.8068 186.39 59.2628 186.574C59.7188 186.75 60.2108 186.838 60.7388 186.838C61.4348 186.838 61.9708 186.682 62.3468 186.37C62.7308 186.058 62.9228 185.642 62.9228 185.122C62.9228 184.546 62.7068 184.11 62.2748 183.814C61.8508 183.518 61.1308 183.37 60.1148 183.37H58.3268L58.7588 179.158H63.3548V179.926H59.5148L59.2268 182.602H60.3068Z" fill="#1F2041" fill-opacity="0.5"/>
<path d="M101.196 182.53C101.748 182.53 102.236 182.634 102.66 182.842C103.092 183.05 103.428 183.346 103.668 183.73C103.908 184.106 104.028 184.546 104.028 185.05C104.028 185.562 103.904 186.014 103.656 186.406C103.408 186.798 103.064 187.102 102.624 187.318C102.192 187.526 101.704 187.63 101.16 187.63C100.048 187.63 99.196 187.266 98.604 186.538C98.012 185.802 97.716 184.766 97.716 183.43C97.716 182.494 97.876 181.702 98.196 181.054C98.516 180.406 98.964 179.918 99.54 179.59C100.116 179.254 100.788 179.086 101.556 179.086C102.388 179.086 103.052 179.238 103.548 179.542L103.2 180.238C102.8 179.974 102.256 179.842 101.568 179.842C100.64 179.842 99.912 180.138 99.384 180.73C98.856 181.314 98.592 182.166 98.592 183.286C98.592 183.486 98.604 183.714 98.628 183.97C98.836 183.514 99.168 183.162 99.624 182.914C100.08 182.658 100.604 182.53 101.196 182.53ZM101.124 186.898C101.732 186.898 102.224 186.734 102.6 186.406C102.984 186.07 103.176 185.626 103.176 185.074C103.176 184.522 102.984 184.082 102.6 183.754C102.224 183.426 101.712 183.262 101.064 183.262C100.64 183.262 100.264 183.342 99.936 183.502C99.616 183.662 99.364 183.882 99.18 184.162C98.996 184.442 98.904 184.754 98.904 185.098C98.904 185.418 98.988 185.714 99.156 185.986C99.332 186.258 99.588 186.478 99.924 186.646C100.26 186.814 100.66 186.898 101.124 186.898Z" fill="#1F2041" fill-opacity="0.5"/>
<path d="M143.642 179.158V179.77L140.126 187.558H139.19L142.646 179.926H138.326V181.498H137.474V179.158H143.642Z" fill="#1F2041" fill-opacity="0.5"/>
<path d="M160.824 184C160.824 172.989 169.751 164 180.762 164C191.773 164 200.7 172.989 200.7 184C200.7 195.011 191.773 204 180.762 204C169.751 204 160.824 195.011 160.824 184Z" fill="url(#paint1_linear)"/>
<path d="M183.017 183.584C183.433 183.792 183.749 184.064 183.965 184.4C184.189 184.736 184.301 185.124 184.301 185.564C184.301 186.084 184.153 186.54 183.857 186.932C183.561 187.316 183.145 187.616 182.609 187.832C182.073 188.04 181.453 188.144 180.749 188.144C180.045 188.144 179.425 188.04 178.889 187.832C178.361 187.616 177.949 187.316 177.653 186.932C177.365 186.54 177.221 186.084 177.221 185.564C177.221 185.124 177.329 184.736 177.545 184.4C177.769 184.064 178.085 183.792 178.493 183.584C178.181 183.392 177.941 183.152 177.773 182.864C177.605 182.568 177.521 182.232 177.521 181.856C177.521 181.368 177.657 180.944 177.929 180.584C178.201 180.224 178.581 179.948 179.069 179.756C179.557 179.556 180.117 179.456 180.749 179.456C181.389 179.456 181.953 179.556 182.441 179.756C182.937 179.948 183.321 180.224 183.593 180.584C183.865 180.944 184.001 181.368 184.001 181.856C184.001 182.232 183.917 182.568 183.749 182.864C183.581 183.152 183.337 183.392 183.017 183.584ZM180.749 180.884C180.357 180.884 180.041 180.98 179.801 181.172C179.569 181.356 179.453 181.612 179.453 181.94C179.453 182.26 179.569 182.512 179.801 182.696C180.033 182.88 180.349 182.972 180.749 182.972C181.149 182.972 181.469 182.88 181.709 182.696C181.949 182.512 182.069 182.26 182.069 181.94C182.069 181.612 181.949 181.356 181.709 181.172C181.469 180.98 181.149 180.884 180.749 180.884ZM180.749 186.716C181.237 186.716 181.621 186.608 181.901 186.392C182.189 186.168 182.333 185.872 182.333 185.504C182.333 185.136 182.189 184.844 181.901 184.628C181.621 184.412 181.237 184.304 180.749 184.304C180.269 184.304 179.889 184.412 179.609 184.628C179.329 184.844 179.189 185.136 179.189 185.504C179.189 185.88 179.329 186.176 179.609 186.392C179.889 186.608 180.269 186.716 180.749 186.716Z" fill="white"/>
<path d="M219.959 179.086C221.071 179.086 221.923 179.454 222.515 180.19C223.107 180.918 223.403 181.95 223.403 183.286C223.403 184.222 223.243 185.014 222.923 185.662C222.603 186.31 222.155 186.802 221.579 187.138C221.003 187.466 220.331 187.63 219.563 187.63C218.731 187.63 218.067 187.478 217.571 187.174L217.919 186.478C218.319 186.742 218.863 186.874 219.551 186.874C220.479 186.874 221.207 186.582 221.735 185.998C222.263 185.406 222.527 184.55 222.527 183.43C222.527 183.222 222.515 182.994 222.491 182.746C222.283 183.202 221.951 183.558 221.495 183.814C221.039 184.062 220.515 184.186 219.923 184.186C219.371 184.186 218.879 184.082 218.447 183.874C218.023 183.666 217.691 183.374 217.451 182.998C217.211 182.614 217.091 182.17 217.091 181.666C217.091 181.154 217.215 180.702 217.463 180.31C217.711 179.918 218.051 179.618 218.483 179.41C218.923 179.194 219.415 179.086 219.959 179.086ZM220.055 183.454C220.479 183.454 220.851 183.374 221.171 183.214C221.499 183.054 221.755 182.834 221.939 182.554C222.123 182.274 222.215 181.962 222.215 181.618C222.215 181.298 222.127 181.002 221.951 180.73C221.783 180.458 221.531 180.238 221.195 180.07C220.859 179.902 220.459 179.818 219.995 179.818C219.387 179.818 218.891 179.986 218.507 180.322C218.131 180.65 217.943 181.09 217.943 181.642C217.943 182.194 218.131 182.634 218.507 182.962C218.891 183.29 219.407 183.454 220.055 183.454Z" fill="#1F2041" fill-opacity="0.5"/>
<path d="M257.062 179.158V187.558H256.198V179.926H254.218V179.158H257.062ZM262.418 187.63C261.77 187.63 261.19 187.458 260.678 187.114C260.174 186.77 259.778 186.278 259.49 185.638C259.21 184.99 259.07 184.23 259.07 183.358C259.07 182.486 259.21 181.73 259.49 181.09C259.778 180.442 260.174 179.946 260.678 179.602C261.19 179.258 261.77 179.086 262.418 179.086C263.066 179.086 263.642 179.258 264.146 179.602C264.658 179.946 265.058 180.442 265.346 181.09C265.634 181.73 265.778 182.486 265.778 183.358C265.778 184.23 265.634 184.99 265.346 185.638C265.058 186.278 264.658 186.77 264.146 187.114C263.642 187.458 263.066 187.63 262.418 187.63ZM262.418 186.838C262.906 186.838 263.334 186.702 263.702 186.43C264.078 186.158 264.37 185.762 264.578 185.242C264.786 184.722 264.89 184.094 264.89 183.358C264.89 182.622 264.786 181.994 264.578 181.474C264.37 180.954 264.078 180.558 263.702 180.286C263.334 180.014 262.906 179.878 262.418 179.878C261.93 179.878 261.498 180.014 261.122 180.286C260.754 180.558 260.466 180.954 260.258 181.474C260.05 181.994 259.946 182.622 259.946 183.358C259.946 184.094 260.05 184.722 260.258 185.242C260.466 185.762 260.754 186.158 261.122 186.43C261.498 186.702 261.93 186.838 262.418 186.838Z" fill="#1F2041" fill-opacity="0.5"/>
<path d="M298.741 179.158V187.558H297.877V179.926H295.897V179.158H298.741ZM303.077 179.158V187.558H302.213V179.926H300.233V179.158H303.077Z" fill="#1F2041" fill-opacity="0.5"/>
<path d="M58.2471 219.158V227.558H57.3831V219.926H55.4031V219.158H58.2471ZM65.9911 226.79V227.558H60.0991V226.946L63.5911 223.526C64.0311 223.094 64.3271 222.722 64.4791 222.41C64.6391 222.09 64.7191 221.77 64.7191 221.45C64.7191 220.954 64.5471 220.57 64.2031 220.298C63.8671 220.018 63.3831 219.878 62.7511 219.878C61.7671 219.878 61.0031 220.19 60.4591 220.814L59.8471 220.286C60.1751 219.902 60.5911 219.606 61.0951 219.398C61.6071 219.19 62.1831 219.086 62.8231 219.086C63.6791 219.086 64.3551 219.29 64.8511 219.698C65.3551 220.098 65.6071 220.65 65.6071 221.354C65.6071 221.786 65.5111 222.202 65.3191 222.602C65.1271 223.002 64.7631 223.462 64.2271 223.982L61.3711 226.79H65.9911Z" fill="#1F2041" fill-opacity="0.5"/>
<path d="M98.1456 219.158V227.558H97.2816V219.926H95.3016V219.158H98.1456ZM103.009 222.758C103.889 222.806 104.557 223.046 105.013 223.478C105.477 223.902 105.709 224.458 105.709 225.146C105.709 225.626 105.593 226.054 105.361 226.43C105.129 226.798 104.785 227.09 104.329 227.306C103.873 227.522 103.317 227.63 102.661 227.63C102.053 227.63 101.477 227.534 100.933 227.342C100.397 227.142 99.9655 226.878 99.6375 226.55L100.057 225.866C100.337 226.154 100.709 226.39 101.173 226.574C101.637 226.75 102.133 226.838 102.661 226.838C103.349 226.838 103.881 226.69 104.257 226.394C104.633 226.09 104.821 225.674 104.821 225.146C104.821 224.626 104.633 224.218 104.257 223.922C103.881 223.626 103.313 223.478 102.553 223.478H101.953V222.842L104.281 219.926H99.9855V219.158H105.385V219.77L103.009 222.758Z" fill="#1F2041" fill-opacity="0.5"/>
<path d="M137.44 219.158V227.558H136.576V219.926H134.596V219.158H137.44ZM146.588 225.35H144.908V227.558H144.044V225.35H139.304V224.726L143.756 219.158H144.716L140.42 224.582H144.068V222.638H144.908V224.582H146.588V225.35Z" fill="#1F2041" fill-opacity="0.5"/>
<path d="M177.886 219.158V227.558H177.022V219.926H175.042V219.158H177.886ZM182.102 222.602C183.318 222.602 184.202 222.822 184.754 223.262C185.314 223.694 185.594 224.302 185.594 225.086C185.594 225.574 185.478 226.01 185.246 226.394C185.022 226.778 184.682 227.082 184.226 227.306C183.77 227.522 183.21 227.63 182.546 227.63C181.946 227.63 181.374 227.534 180.83 227.342C180.294 227.142 179.862 226.878 179.534 226.55L179.954 225.866C180.234 226.154 180.602 226.39 181.058 226.574C181.514 226.75 182.006 226.838 182.534 226.838C183.23 226.838 183.766 226.682 184.142 226.37C184.526 226.058 184.718 225.642 184.718 225.122C184.718 224.546 184.502 224.11 184.07 223.814C183.646 223.518 182.926 223.37 181.91 223.37H180.122L180.554 219.158H185.15V219.926H181.31L181.022 222.602H182.102Z" fill="#1F2041" fill-opacity="0.5"/>
<path d="M217.503 219.158V227.558H216.639V219.926H214.659V219.158H217.503ZM222.991 222.53C223.543 222.53 224.031 222.634 224.455 222.842C224.887 223.05 225.223 223.346 225.463 223.73C225.703 224.106 225.823 224.546 225.823 225.05C225.823 225.562 225.699 226.014 225.451 226.406C225.203 226.798 224.859 227.102 224.419 227.318C223.987 227.526 223.499 227.63 222.955 227.63C221.843 227.63 220.991 227.266 220.399 226.538C219.807 225.802 219.511 224.766 219.511 223.43C219.511 222.494 219.671 221.702 219.991 221.054C220.311 220.406 220.759 219.918 221.335 219.59C221.911 219.254 222.583 219.086 223.351 219.086C224.183 219.086 224.847 219.238 225.343 219.542L224.995 220.238C224.595 219.974 224.051 219.842 223.363 219.842C222.435 219.842 221.707 220.138 221.179 220.73C220.651 221.314 220.387 222.166 220.387 223.286C220.387 223.486 220.399 223.714 220.423 223.97C220.631 223.514 220.963 223.162 221.419 222.914C221.875 222.658 222.399 222.53 222.991 222.53ZM222.919 226.898C223.527 226.898 224.019 226.734 224.395 226.406C224.779 226.07 224.971 225.626 224.971 225.074C224.971 224.522 224.779 224.082 224.395 223.754C224.019 223.426 223.507 223.262 222.859 223.262C222.435 223.262 222.059 223.342 221.731 223.502C221.411 223.662 221.159 223.882 220.975 224.162C220.791 224.442 220.699 224.754 220.699 225.098C220.699 225.418 220.783 225.714 220.951 225.986C221.127 226.258 221.383 226.478 221.719 226.646C222.055 226.814 222.455 226.898 222.919 226.898Z" fill="#1F2041" fill-opacity="0.5"/>
<path d="M257.501 219.158V227.558H256.637V219.926H254.657V219.158H257.501ZM265.437 219.158V219.77L261.921 227.558H260.985L264.441 219.926H260.121V221.498H259.269V219.158H265.437Z" fill="#1F2041" fill-opacity="0.5"/>
<path d="M297.083 219.158V227.558H296.219V219.926H294.239V219.158H297.083ZM303.903 223.154C304.431 223.33 304.835 223.594 305.115 223.946C305.403 224.298 305.547 224.722 305.547 225.218C305.547 225.706 305.415 226.134 305.151 226.502C304.887 226.862 304.507 227.142 304.011 227.342C303.523 227.534 302.947 227.63 302.283 227.63C301.275 227.63 300.483 227.414 299.907 226.982C299.331 226.55 299.043 225.962 299.043 225.218C299.043 224.714 299.179 224.29 299.451 223.946C299.731 223.594 300.135 223.33 300.663 223.154C300.231 222.986 299.903 222.746 299.679 222.434C299.455 222.114 299.343 221.738 299.343 221.306C299.343 220.626 299.607 220.086 300.135 219.686C300.671 219.286 301.387 219.086 302.283 219.086C302.875 219.086 303.391 219.178 303.831 219.362C304.279 219.538 304.627 219.794 304.875 220.13C305.123 220.466 305.247 220.858 305.247 221.306C305.247 221.738 305.131 222.114 304.899 222.434C304.667 222.746 304.335 222.986 303.903 223.154ZM300.207 221.33C300.207 221.794 300.391 222.162 300.759 222.434C301.127 222.706 301.635 222.842 302.283 222.842C302.931 222.842 303.439 222.706 303.807 222.434C304.183 222.162 304.371 221.798 304.371 221.342C304.371 220.87 304.179 220.498 303.795 220.226C303.419 219.954 302.915 219.818 302.283 219.818C301.643 219.818 301.135 219.954 300.759 220.226C300.391 220.498 300.207 220.866 300.207 221.33ZM302.283 226.898C303.027 226.898 303.607 226.746 304.023 226.442C304.447 226.138 304.659 225.726 304.659 225.206C304.659 224.686 304.447 224.278 304.023 223.982C303.607 223.678 303.027 223.526 302.283 223.526C301.547 223.526 300.967 223.678 300.543 223.982C300.127 224.278 299.919 224.686 299.919 225.206C299.919 225.734 300.127 226.15 300.543 226.454C300.959 226.75 301.539 226.898 302.283 226.898Z" fill="#1F2041" fill-opacity="0.5"/>
<path d="M42.1953 264C42.1953 252.989 51.1217 244 62.133 244C73.1443 244 82.0707 252.989 82.0707 264C82.0707 275.011 73.1443 284 62.133 284C51.1217 284 42.1953 275.011 42.1953 264Z" fill="url(#paint2_linear)"/>
<path d="M58.675 259.6V268H56.731V261.16H55.051V259.6H58.675ZM63.0862 259.456C64.2622 259.456 65.1822 259.816 65.8462 260.536C66.5102 261.248 66.8422 262.276 66.8422 263.62C66.8422 264.572 66.6622 265.388 66.3022 266.068C65.9502 266.748 65.4502 267.264 64.8022 267.616C64.1542 267.968 63.4062 268.144 62.5582 268.144C62.1102 268.144 61.6822 268.096 61.2742 268C60.8662 267.896 60.5182 267.752 60.2302 267.568L60.9502 266.14C61.3582 266.42 61.8822 266.56 62.5222 266.56C63.2342 266.56 63.7982 266.352 64.2142 265.936C64.6302 265.512 64.8542 264.904 64.8862 264.112C64.3822 264.616 63.6862 264.868 62.7982 264.868C62.2622 264.868 61.7742 264.76 61.3342 264.544C60.8942 264.328 60.5462 264.024 60.2902 263.632C60.0342 263.232 59.9062 262.772 59.9062 262.252C59.9062 261.692 60.0462 261.2 60.3262 260.776C60.6062 260.352 60.9862 260.028 61.4662 259.804C61.9542 259.572 62.4942 259.456 63.0862 259.456ZM63.2302 263.416C63.6542 263.416 63.9982 263.3 64.2622 263.068C64.5342 262.828 64.6702 262.524 64.6702 262.156C64.6702 261.788 64.5382 261.488 64.2742 261.256C64.0182 261.024 63.6622 260.908 63.2062 260.908C62.7902 260.908 62.4502 261.02 62.1862 261.244C61.9302 261.468 61.8022 261.772 61.8022 262.156C61.8022 262.54 61.9302 262.848 62.1862 263.08C62.4502 263.304 62.7982 263.416 63.2302 263.416Z" fill="white"/>
<path d="M99.7489 266.79V267.558H93.8569V266.946L97.3489 263.526C97.7889 263.094 98.0849 262.722 98.2369 262.41C98.3969 262.09 98.4769 261.77 98.4769 261.45C98.4769 260.954 98.3049 260.57 97.9609 260.298C97.6249 260.018 97.1409 259.878 96.5089 259.878C95.5249 259.878 94.7609 260.19 94.2169 260.814L93.6049 260.286C93.9329 259.902 94.3489 259.606 94.8529 259.398C95.3649 259.19 95.9409 259.086 96.5809 259.086C97.4369 259.086 98.1129 259.29 98.6089 259.698C99.1129 260.098 99.3649 260.65 99.3649 261.354C99.3649 261.786 99.2689 262.202 99.0769 262.602C98.8849 263.002 98.5209 263.462 97.9849 263.982L95.1289 266.79H99.7489ZM104.134 267.63C103.486 267.63 102.906 267.458 102.394 267.114C101.89 266.77 101.494 266.278 101.206 265.638C100.926 264.99 100.786 264.23 100.786 263.358C100.786 262.486 100.926 261.73 101.206 261.09C101.494 260.442 101.89 259.946 102.394 259.602C102.906 259.258 103.486 259.086 104.134 259.086C104.782 259.086 105.358 259.258 105.862 259.602C106.374 259.946 106.774 260.442 107.062 261.09C107.35 261.73 107.494 262.486 107.494 263.358C107.494 264.23 107.35 264.99 107.062 265.638C106.774 266.278 106.374 266.77 105.862 267.114C105.358 267.458 104.782 267.63 104.134 267.63ZM104.134 266.838C104.622 266.838 105.05 266.702 105.418 266.43C105.794 266.158 106.086 265.762 106.294 265.242C106.502 264.722 106.606 264.094 106.606 263.358C106.606 262.622 106.502 261.994 106.294 261.474C106.086 260.954 105.794 260.558 105.418 260.286C105.05 260.014 104.622 259.878 104.134 259.878C103.646 259.878 103.214 260.014 102.838 260.286C102.47 260.558 102.182 260.954 101.974 261.474C101.766 261.994 101.662 262.622 101.662 263.358C101.662 264.094 101.766 264.722 101.974 265.242C102.182 265.762 102.47 266.158 102.838 266.43C103.214 266.702 103.646 266.838 104.134 266.838Z" fill="#1F2041" fill-opacity="0.5"/>
<path d="M141.405 266.79V267.558H135.513V266.946L139.005 263.526C139.445 263.094 139.741 262.722 139.893 262.41C140.053 262.09 140.133 261.77 140.133 261.45C140.133 260.954 139.961 260.57 139.617 260.298C139.281 260.018 138.797 259.878 138.165 259.878C137.181 259.878 136.417 260.19 135.873 260.814L135.261 260.286C135.589 259.902 136.005 259.606 136.509 259.398C137.021 259.19 137.597 259.086 138.237 259.086C139.093 259.086 139.769 259.29 140.265 259.698C140.769 260.098 141.021 260.65 141.021 261.354C141.021 261.786 140.925 262.202 140.733 262.602C140.541 263.002 140.177 263.462 139.641 263.982L136.785 266.79H141.405ZM144.817 259.158V267.558H143.953V259.926H141.973V259.158H144.817Z" fill="#1F2041" fill-opacity="0.5"/>
<path d="M180.04 266.79V267.558H174.148V266.946L177.64 263.526C178.08 263.094 178.376 262.722 178.528 262.41C178.688 262.09 178.768 261.77 178.768 261.45C178.768 260.954 178.596 260.57 178.252 260.298C177.916 260.018 177.432 259.878 176.8 259.878C175.816 259.878 175.052 260.19 174.508 260.814L173.896 260.286C174.224 259.902 174.64 259.606 175.144 259.398C175.656 259.19 176.232 259.086 176.872 259.086C177.728 259.086 178.404 259.29 178.9 259.698C179.404 260.098 179.656 260.65 179.656 261.354C179.656 261.786 179.56 262.202 179.368 262.602C179.176 263.002 178.812 263.462 178.276 263.982L175.42 266.79H180.04ZM186.86 266.79V267.558H180.968V266.946L184.46 263.526C184.9 263.094 185.196 262.722 185.348 262.41C185.508 262.09 185.588 261.77 185.588 261.45C185.588 260.954 185.416 260.57 185.072 260.298C184.736 260.018 184.252 259.878 183.62 259.878C182.636 259.878 181.872 260.19 181.328 260.814L180.716 260.286C181.044 259.902 181.46 259.606 181.964 259.398C182.476 259.19 183.052 259.086 183.692 259.086C184.548 259.086 185.224 259.29 185.72 259.698C186.224 260.098 186.476 260.65 186.476 261.354C186.476 261.786 186.38 262.202 186.188 262.602C185.996 263.002 185.632 263.462 185.096 263.982L182.24 266.79H186.86Z" fill="#1F2041" fill-opacity="0.5"/>
<path d="M201.695 264C201.695 252.989 210.622 244 221.633 244C232.644 244 241.571 252.989 241.571 264C241.571 275.011 232.644 284 221.633 284C210.622 284 201.695 275.011 201.695 264Z" fill="url(#paint3_linear)"/>
<path d="M220.291 266.416V268H213.943V266.74L217.183 263.68C217.527 263.352 217.759 263.072 217.879 262.84C217.999 262.6 218.059 262.364 218.059 262.132C218.059 261.796 217.943 261.54 217.711 261.364C217.487 261.18 217.155 261.088 216.715 261.088C216.347 261.088 216.015 261.16 215.719 261.304C215.423 261.44 215.175 261.648 214.975 261.928L213.559 261.016C213.887 260.528 214.339 260.148 214.915 259.876C215.491 259.596 216.151 259.456 216.895 259.456C217.519 259.456 218.063 259.56 218.527 259.768C218.999 259.968 219.363 260.256 219.619 260.632C219.883 261 220.015 261.436 220.015 261.94C220.015 262.396 219.919 262.824 219.727 263.224C219.535 263.624 219.163 264.08 218.611 264.592L216.679 266.416H220.291ZM225.017 263.02C225.753 263.14 226.317 263.416 226.709 263.848C227.101 264.272 227.297 264.8 227.297 265.432C227.297 265.92 227.169 266.372 226.913 266.788C226.657 267.196 226.265 267.524 225.737 267.772C225.217 268.02 224.577 268.144 223.817 268.144C223.225 268.144 222.641 268.068 222.065 267.916C221.497 267.756 221.013 267.532 220.613 267.244L221.369 265.756C221.689 265.996 222.057 266.184 222.473 266.32C222.897 266.448 223.329 266.512 223.769 266.512C224.257 266.512 224.641 266.42 224.921 266.236C225.201 266.044 225.341 265.776 225.341 265.432C225.341 264.744 224.817 264.4 223.769 264.4H222.881V263.116L224.609 261.16H221.033V259.6H226.913V260.86L225.017 263.02Z" fill="white"/>
<path d="M259.374 266.79V267.558H253.482V266.946L256.974 263.526C257.414 263.094 257.71 262.722 257.862 262.41C258.022 262.09 258.102 261.77 258.102 261.45C258.102 260.954 257.93 260.57 257.586 260.298C257.25 260.018 256.766 259.878 256.134 259.878C255.15 259.878 254.386 260.19 253.842 260.814L253.23 260.286C253.558 259.902 253.974 259.606 254.478 259.398C254.99 259.19 255.566 259.086 256.206 259.086C257.062 259.086 257.738 259.29 258.234 259.698C258.738 260.098 258.99 260.65 258.99 261.354C258.99 261.786 258.894 262.202 258.702 262.602C258.51 263.002 258.146 263.462 257.61 263.982L254.754 266.79H259.374ZM267.317 265.35H265.637V267.558H264.773V265.35H260.033V264.726L264.485 259.158H265.445L261.149 264.582H264.797V262.638H265.637V264.582H267.317V265.35Z" fill="#1F2041" fill-opacity="0.5"/>
<path d="M299.677 266.79V267.558H293.785V266.946L297.277 263.526C297.717 263.094 298.013 262.722 298.165 262.41C298.325 262.09 298.405 261.77 298.405 261.45C298.405 260.954 298.233 260.57 297.889 260.298C297.553 260.018 297.069 259.878 296.437 259.878C295.453 259.878 294.689 260.19 294.145 260.814L293.533 260.286C293.861 259.902 294.277 259.606 294.781 259.398C295.293 259.19 295.869 259.086 296.509 259.086C297.365 259.086 298.041 259.29 298.537 259.698C299.041 260.098 299.293 260.65 299.293 261.354C299.293 261.786 299.197 262.202 299.005 262.602C298.813 263.002 298.449 263.462 297.913 263.982L295.057 266.79H299.677ZM302.969 262.602C304.185 262.602 305.069 262.822 305.621 263.262C306.181 263.694 306.461 264.302 306.461 265.086C306.461 265.574 306.345 266.01 306.113 266.394C305.889 266.778 305.549 267.082 305.093 267.306C304.637 267.522 304.077 267.63 303.413 267.63C302.813 267.63 302.241 267.534 301.697 267.342C301.161 267.142 300.729 266.878 300.401 266.55L300.821 265.866C301.101 266.154 301.469 266.39 301.925 266.574C302.381 266.75 302.873 266.838 303.401 266.838C304.097 266.838 304.633 266.682 305.009 266.37C305.393 266.058 305.585 265.642 305.585 265.122C305.585 264.546 305.369 264.11 304.937 263.814C304.513 263.518 303.793 263.37 302.777 263.37H300.989L301.421 259.158H306.017V259.926H302.177L301.889 262.602H302.969Z" fill="#1F2041" fill-opacity="0.5"/>
<path d="M60.1903 306.79V307.558H54.2983V306.946L57.7903 303.526C58.2303 303.094 58.5263 302.722 58.6783 302.41C58.8383 302.09 58.9183 301.77 58.9183 301.45C58.9183 300.954 58.7463 300.57 58.4023 300.298C58.0663 300.018 57.5823 299.878 56.9503 299.878C55.9663 299.878 55.2023 300.19 54.6583 300.814L54.0463 300.286C54.3743 299.902 54.7903 299.606 55.2943 299.398C55.8063 299.19 56.3823 299.086 57.0223 299.086C57.8783 299.086 58.5543 299.29 59.0503 299.698C59.5543 300.098 59.8063 300.65 59.8063 301.354C59.8063 301.786 59.7103 302.202 59.5183 302.602C59.3263 303.002 58.9623 303.462 58.4263 303.982L55.5703 306.79H60.1903ZM64.7077 302.53C65.2597 302.53 65.7477 302.634 66.1717 302.842C66.6037 303.05 66.9397 303.346 67.1797 303.73C67.4197 304.106 67.5397 304.546 67.5397 305.05C67.5397 305.562 67.4157 306.014 67.1677 306.406C66.9197 306.798 66.5757 307.102 66.1357 307.318C65.7037 307.526 65.2157 307.63 64.6717 307.63C63.5597 307.63 62.7077 307.266 62.1157 306.538C61.5237 305.802 61.2277 304.766 61.2277 303.43C61.2277 302.494 61.3877 301.702 61.7077 301.054C62.0277 300.406 62.4757 299.918 63.0517 299.59C63.6277 299.254 64.2997 299.086 65.0677 299.086C65.8997 299.086 66.5637 299.238 67.0597 299.542L66.7117 300.238C66.3117 299.974 65.7677 299.842 65.0797 299.842C64.1517 299.842 63.4237 300.138 62.8957 300.73C62.3677 301.314 62.1037 302.166 62.1037 303.286C62.1037 303.486 62.1157 303.714 62.1397 303.97C62.3477 303.514 62.6797 303.162 63.1357 302.914C63.5917 302.658 64.1157 302.53 64.7077 302.53ZM64.6357 306.898C65.2437 306.898 65.7357 306.734 66.1117 306.406C66.4957 306.07 66.6877 305.626 66.6877 305.074C66.6877 304.522 66.4957 304.082 66.1117 303.754C65.7357 303.426 65.2237 303.262 64.5757 303.262C64.1517 303.262 63.7757 303.342 63.4477 303.502C63.1277 303.662 62.8757 303.882 62.6917 304.162C62.5077 304.442 62.4157 304.754 62.4157 305.098C62.4157 305.418 62.4997 305.714 62.6677 305.986C62.8437 306.258 63.0997 306.478 63.4357 306.646C63.7717 306.814 64.1717 306.898 64.6357 306.898Z" fill="#1F2041" fill-opacity="0.5"/>
<path d="M100.188 306.79V307.558H94.2963V306.946L97.7883 303.526C98.2283 303.094 98.5243 302.722 98.6763 302.41C98.8363 302.09 98.9163 301.77 98.9163 301.45C98.9163 300.954 98.7443 300.57 98.4003 300.298C98.0643 300.018 97.5803 299.878 96.9483 299.878C95.9643 299.878 95.2003 300.19 94.6563 300.814L94.0443 300.286C94.3723 299.902 94.7883 299.606 95.2923 299.398C95.8043 299.19 96.3803 299.086 97.0203 299.086C97.8763 299.086 98.5523 299.29 99.0483 299.698C99.5523 300.098 99.8043 300.65 99.8043 301.354C99.8043 301.786 99.7083 302.202 99.5163 302.602C99.3243 303.002 98.9603 303.462 98.4243 303.982L95.5683 306.79H100.188ZM107.154 299.158V299.77L103.638 307.558H102.702L106.158 299.926H101.838V301.498H100.986V299.158H107.154Z" fill="#1F2041" fill-opacity="0.5"/>
<path d="M139.747 306.79V307.558H133.855V306.946L137.347 303.526C137.787 303.094 138.083 302.722 138.235 302.41C138.395 302.09 138.475 301.77 138.475 301.45C138.475 300.954 138.303 300.57 137.959 300.298C137.623 300.018 137.139 299.878 136.507 299.878C135.523 299.878 134.759 300.19 134.215 300.814L133.603 300.286C133.931 299.902 134.347 299.606 134.851 299.398C135.363 299.19 135.939 299.086 136.579 299.086C137.435 299.086 138.111 299.29 138.607 299.698C139.111 300.098 139.363 300.65 139.363 301.354C139.363 301.786 139.267 302.202 139.075 302.602C138.883 303.002 138.519 303.462 137.983 303.982L135.127 306.79H139.747ZM145.643 303.154C146.171 303.33 146.575 303.594 146.855 303.946C147.143 304.298 147.287 304.722 147.287 305.218C147.287 305.706 147.155 306.134 146.891 306.502C146.627 306.862 146.247 307.142 145.751 307.342C145.263 307.534 144.687 307.63 144.023 307.63C143.015 307.63 142.223 307.414 141.647 306.982C141.071 306.55 140.783 305.962 140.783 305.218C140.783 304.714 140.919 304.29 141.191 303.946C141.471 303.594 141.875 303.33 142.403 303.154C141.971 302.986 141.643 302.746 141.419 302.434C141.195 302.114 141.083 301.738 141.083 301.306C141.083 300.626 141.347 300.086 141.875 299.686C142.411 299.286 143.127 299.086 144.023 299.086C144.615 299.086 145.131 299.178 145.571 299.362C146.019 299.538 146.367 299.794 146.615 300.13C146.863 300.466 146.987 300.858 146.987 301.306C146.987 301.738 146.871 302.114 146.639 302.434C146.407 302.746 146.075 302.986 145.643 303.154ZM141.947 301.33C141.947 301.794 142.131 302.162 142.499 302.434C142.867 302.706 143.375 302.842 144.023 302.842C144.671 302.842 145.179 302.706 145.547 302.434C145.923 302.162 146.111 301.798 146.111 301.342C146.111 300.87 145.919 300.498 145.535 300.226C145.159 299.954 144.655 299.818 144.023 299.818C143.383 299.818 142.875 299.954 142.499 300.226C142.131 300.498 141.947 300.866 141.947 301.33ZM144.023 306.898C144.767 306.898 145.347 306.746 145.763 306.442C146.187 306.138 146.399 305.726 146.399 305.206C146.399 304.686 146.187 304.278 145.763 303.982C145.347 303.678 144.767 303.526 144.023 303.526C143.287 303.526 142.707 303.678 142.283 303.982C141.867 304.278 141.659 304.686 141.659 305.206C141.659 305.734 141.867 306.15 142.283 306.454C142.699 306.75 143.279 306.898 144.023 306.898Z" fill="#1F2041" fill-opacity="0.5"/>
<path d="M179.794 306.79V307.558H173.902V306.946L177.394 303.526C177.834 303.094 178.13 302.722 178.282 302.41C178.442 302.09 178.522 301.77 178.522 301.45C178.522 300.954 178.35 300.57 178.006 300.298C177.67 300.018 177.186 299.878 176.554 299.878C175.57 299.878 174.806 300.19 174.262 300.814L173.65 300.286C173.978 299.902 174.394 299.606 174.898 299.398C175.41 299.19 175.986 299.086 176.626 299.086C177.482 299.086 178.158 299.29 178.654 299.698C179.158 300.098 179.41 300.65 179.41 301.354C179.41 301.786 179.314 302.202 179.122 302.602C178.93 303.002 178.566 303.462 178.03 303.982L175.174 306.79H179.794ZM183.494 299.086C184.606 299.086 185.458 299.454 186.05 300.19C186.642 300.918 186.938 301.95 186.938 303.286C186.938 304.222 186.778 305.014 186.458 305.662C186.138 306.31 185.69 306.802 185.114 307.138C184.538 307.466 183.866 307.63 183.098 307.63C182.266 307.63 181.602 307.478 181.106 307.174L181.454 306.478C181.854 306.742 182.398 306.874 183.086 306.874C184.014 306.874 184.742 306.582 185.27 305.998C185.798 305.406 186.062 304.55 186.062 303.43C186.062 303.222 186.05 302.994 186.026 302.746C185.818 303.202 185.486 303.558 185.03 303.814C184.574 304.062 184.05 304.186 183.458 304.186C182.906 304.186 182.414 304.082 181.982 303.874C181.558 303.666 181.226 303.374 180.986 302.998C180.746 302.614 180.626 302.17 180.626 301.666C180.626 301.154 180.75 300.702 180.998 300.31C181.246 299.918 181.586 299.618 182.018 299.41C182.458 299.194 182.95 299.086 183.494 299.086ZM183.59 303.454C184.014 303.454 184.386 303.374 184.706 303.214C185.034 303.054 185.29 302.834 185.474 302.554C185.658 302.274 185.75 301.962 185.75 301.618C185.75 301.298 185.662 301.002 185.486 300.73C185.318 300.458 185.066 300.238 184.73 300.07C184.394 299.902 183.994 299.818 183.53 299.818C182.922 299.818 182.426 299.986 182.042 300.322C181.666 300.65 181.478 301.09 181.478 301.642C181.478 302.194 181.666 302.634 182.042 302.962C182.426 303.29 182.942 303.454 183.59 303.454Z" fill="#1F2041" fill-opacity="0.5"/>
<path d="M216.496 302.758C217.376 302.806 218.044 303.046 218.5 303.478C218.964 303.902 219.196 304.458 219.196 305.146C219.196 305.626 219.08 306.054 218.848 306.43C218.616 306.798 218.272 307.09 217.816 307.306C217.36 307.522 216.804 307.63 216.148 307.63C215.54 307.63 214.964 307.534 214.42 307.342C213.884 307.142 213.452 306.878 213.124 306.55L213.544 305.866C213.824 306.154 214.196 306.39 214.66 306.574C215.124 306.75 215.62 306.838 216.148 306.838C216.836 306.838 217.368 306.69 217.744 306.394C218.12 306.09 218.308 305.674 218.308 305.146C218.308 304.626 218.12 304.218 217.744 303.922C217.368 303.626 216.8 303.478 216.04 303.478H215.44V302.842L217.768 299.926H213.472V299.158H218.872V299.77L216.496 302.758ZM223.761 307.63C223.113 307.63 222.533 307.458 222.021 307.114C221.517 306.77 221.121 306.278 220.833 305.638C220.553 304.99 220.413 304.23 220.413 303.358C220.413 302.486 220.553 301.73 220.833 301.09C221.121 300.442 221.517 299.946 222.021 299.602C222.533 299.258 223.113 299.086 223.761 299.086C224.409 299.086 224.985 299.258 225.489 299.602C226.001 299.946 226.401 300.442 226.689 301.09C226.977 301.73 227.121 302.486 227.121 303.358C227.121 304.23 226.977 304.99 226.689 305.638C226.401 306.278 226.001 306.77 225.489 307.114C224.985 307.458 224.409 307.63 223.761 307.63ZM223.761 306.838C224.249 306.838 224.677 306.702 225.045 306.43C225.421 306.158 225.713 305.762 225.921 305.242C226.129 304.722 226.233 304.094 226.233 303.358C226.233 302.622 226.129 301.994 225.921 301.474C225.713 300.954 225.421 300.558 225.045 300.286C224.677 300.014 224.249 299.878 223.761 299.878C223.273 299.878 222.841 300.014 222.465 300.286C222.097 300.558 221.809 300.954 221.601 301.474C221.393 301.994 221.289 302.622 221.289 303.358C221.289 304.094 221.393 304.722 221.601 305.242C221.809 305.762 222.097 306.158 222.465 306.43C222.841 306.702 223.273 306.838 223.761 306.838Z" fill="#1F2041" fill-opacity="0.5"/>
<path d="M258.176 302.758C259.056 302.806 259.724 303.046 260.18 303.478C260.644 303.902 260.876 304.458 260.876 305.146C260.876 305.626 260.76 306.054 260.528 306.43C260.296 306.798 259.952 307.09 259.496 307.306C259.04 307.522 258.484 307.63 257.828 307.63C257.22 307.63 256.644 307.534 256.1 307.342C255.564 307.142 255.132 306.878 254.804 306.55L255.224 305.866C255.504 306.154 255.876 306.39 256.34 306.574C256.804 306.75 257.3 306.838 257.828 306.838C258.516 306.838 259.048 306.69 259.424 306.394C259.8 306.09 259.988 305.674 259.988 305.146C259.988 304.626 259.8 304.218 259.424 303.922C259.048 303.626 258.48 303.478 257.72 303.478H257.12V302.842L259.448 299.926H255.152V299.158H260.552V299.77L258.176 302.758ZM264.421 299.158V307.558H263.557V299.926H261.577V299.158H264.421Z" fill="#1F2041" fill-opacity="0.5"/>
<path d="M301.173 299.6V308H300.309V300.368H298.329V299.6H301.173Z" fill="#1F2041" fill-opacity="0.25"/>
<path d="M135.147 49L134.159 45.77H129.219L128.231 49H125.134L129.922 35.377H133.437L138.244 49H135.147ZM133.475 43.357L132.487 40.203C132.423 39.9877 132.341 39.7153 132.24 39.386C132.138 39.0567 132.037 38.721 131.936 38.379C131.834 38.037 131.752 37.7393 131.689 37.486C131.625 37.7393 131.537 38.056 131.423 38.436C131.321 38.8033 131.22 39.158 131.119 39.5C131.03 39.8293 130.96 40.0637 130.91 40.203L129.941 43.357H133.475ZM148.93 41.343C148.93 41.9003 148.753 42.3753 148.398 42.768C148.056 43.1607 147.543 43.414 146.859 43.528V43.604C147.581 43.6927 148.157 43.9397 148.588 44.345C149.031 44.7503 149.253 45.2697 149.253 45.903C149.253 46.4983 149.095 47.0303 148.778 47.499C148.474 47.9677 147.986 48.335 147.315 48.601C146.644 48.867 145.763 49 144.674 49H139.734V38.626H144.674C145.485 38.626 146.207 38.7147 146.84 38.892C147.486 39.0567 147.993 39.3353 148.36 39.728C148.74 40.1207 148.93 40.659 148.93 41.343ZM146.061 41.571C146.061 40.9377 145.561 40.621 144.56 40.621H142.565V42.673H144.237C144.832 42.673 145.282 42.5907 145.586 42.426C145.903 42.2487 146.061 41.9637 146.061 41.571ZM146.327 45.751C146.327 45.3457 146.169 45.0543 145.852 44.877C145.535 44.687 145.06 44.592 144.427 44.592H142.565V47.043H144.484C145.016 47.043 145.453 46.948 145.795 46.758C146.15 46.5553 146.327 46.2197 146.327 45.751ZM158.846 38.626V40.754H154.514V49H151.683V38.626H158.846ZM159.274 38.626H162.371L164.328 44.459C164.43 44.7377 164.506 45.029 164.556 45.333C164.607 45.6243 164.645 45.9347 164.67 46.264H164.727C164.765 45.9347 164.816 45.6243 164.879 45.333C164.955 45.029 165.038 44.7377 165.126 44.459L167.045 38.626H170.085L165.696 50.33C165.304 51.4067 164.727 52.211 163.967 52.743C163.22 53.2877 162.352 53.56 161.364 53.56C161.048 53.56 160.769 53.541 160.528 53.503C160.3 53.4777 160.098 53.446 159.92 53.408V51.166C160.06 51.1913 160.224 51.2167 160.414 51.242C160.617 51.2673 160.826 51.28 161.041 51.28C161.637 51.28 162.105 51.0963 162.447 50.729C162.802 50.3743 163.062 49.9437 163.226 49.437L163.397 48.924L159.274 38.626ZM175.792 49.19C174.246 49.19 173.049 48.7657 172.201 47.917C171.365 47.0557 170.947 45.7067 170.947 43.87C170.947 42.6033 171.162 41.571 171.593 40.773C172.023 39.975 172.619 39.386 173.379 39.006C174.151 38.626 175.038 38.436 176.039 38.436C176.748 38.436 177.362 38.5057 177.882 38.645C178.414 38.7843 178.876 38.949 179.269 39.139L178.433 41.324C177.989 41.1467 177.571 41.001 177.179 40.887C176.799 40.773 176.419 40.716 176.039 40.716C174.569 40.716 173.835 41.761 173.835 43.851C173.835 44.8897 174.025 45.656 174.405 46.15C174.797 46.644 175.342 46.891 176.039 46.891C176.634 46.891 177.16 46.815 177.616 46.663C178.072 46.4983 178.515 46.2767 178.946 45.998V48.411C178.515 48.6897 178.059 48.886 177.578 49C177.109 49.1267 176.514 49.19 175.792 49.19ZM189.922 40.754H186.521V49H183.69V40.754H180.289V38.626H189.922V40.754ZM204.229 46.91C204.533 46.91 204.786 47.0113 204.989 47.214C205.191 47.4167 205.293 47.67 205.293 47.974C205.293 48.2653 205.191 48.5123 204.989 48.715C204.786 48.905 204.533 49 204.229 49H197.769C197.439 49 197.18 48.8987 196.99 48.696C196.8 48.4933 196.705 48.2337 196.705 47.917C196.705 47.6003 196.819 47.3217 197.047 47.081L201.189 42.654C201.657 42.1473 202.025 41.6407 202.291 41.134C202.569 40.6147 202.709 40.1397 202.709 39.709C202.709 39.139 202.506 38.645 202.101 38.227C201.695 37.809 201.227 37.6 200.695 37.6C200.327 37.6 199.954 37.7267 199.574 37.98C199.206 38.2207 198.871 38.5437 198.567 38.949C198.339 39.253 198.047 39.405 197.693 39.405C197.414 39.405 197.154 39.2973 196.914 39.082C196.686 38.8667 196.572 38.626 196.572 38.36C196.572 38.17 196.635 37.98 196.762 37.79C196.888 37.5873 197.078 37.3593 197.332 37.106C197.813 36.6247 198.37 36.2383 199.004 35.947C199.637 35.6557 200.245 35.51 200.828 35.51C201.664 35.51 202.398 35.6873 203.032 36.042C203.665 36.3967 204.153 36.8843 204.495 37.505C204.837 38.1257 205.008 38.8287 205.008 39.614C205.008 40.3867 204.799 41.1847 204.381 42.008C203.975 42.8187 203.424 43.5977 202.728 44.345L200.315 46.91H204.229ZM211.698 49.19C210.634 49.19 209.716 48.905 208.943 48.335C208.183 47.765 207.607 46.967 207.214 45.941C206.822 44.9023 206.625 43.7053 206.625 42.35C206.625 40.9947 206.822 39.804 207.214 38.778C207.607 37.7393 208.183 36.935 208.943 36.365C209.716 35.795 210.634 35.51 211.698 35.51C212.762 35.51 213.674 35.795 214.434 36.365C215.207 36.935 215.79 37.7393 216.182 38.778C216.575 39.804 216.771 40.9947 216.771 42.35C216.771 43.7053 216.575 44.9023 216.182 45.941C215.79 46.967 215.207 47.765 214.434 48.335C213.674 48.905 212.762 49.19 211.698 49.19ZM211.698 46.91C212.509 46.91 213.142 46.5237 213.598 45.751C214.067 44.9783 214.301 43.8447 214.301 42.35C214.301 40.8553 214.067 39.7217 213.598 38.949C213.142 38.1763 212.509 37.79 211.698 37.79C210.888 37.79 210.248 38.1763 209.779 38.949C209.323 39.7217 209.095 40.8553 209.095 42.35C209.095 43.8447 209.323 44.9783 209.779 45.751C210.248 46.5237 210.888 46.91 211.698 46.91ZM221.906 35.7C222.223 35.7 222.489 35.814 222.704 36.042C222.919 36.2573 223.027 36.5297 223.027 36.859V47.841C223.027 48.1703 222.907 48.449 222.666 48.677C222.425 48.8923 222.128 49 221.773 49C221.418 49 221.127 48.8923 220.899 48.677C220.671 48.449 220.557 48.1703 220.557 47.841V38.835L219.379 39.557C219.189 39.671 218.986 39.728 218.771 39.728C218.454 39.728 218.182 39.6077 217.954 39.367C217.739 39.1263 217.631 38.8603 217.631 38.569C217.631 38.3663 217.682 38.1763 217.783 37.999C217.897 37.8217 218.043 37.6823 218.22 37.581L221.089 35.871C221.304 35.757 221.577 35.7 221.906 35.7ZM229.644 35.453C230.518 35.453 231.297 35.7 231.981 36.194C232.665 36.6753 233.191 37.315 233.558 38.113C233.925 38.8983 234.109 39.7407 234.109 40.64C234.109 41.5647 233.944 42.5843 233.615 43.699C233.298 44.801 232.709 45.846 231.848 46.834C230.999 47.822 229.84 48.525 228.371 48.943C228.219 48.981 228.073 49 227.934 49C227.605 49 227.332 48.9177 227.117 48.753C226.902 48.5757 226.794 48.3033 226.794 47.936C226.794 47.6573 226.883 47.4167 227.06 47.214C227.25 46.9987 227.497 46.8467 227.801 46.758C228.599 46.53 229.334 46.1247 230.005 45.542C230.689 44.9593 231.189 44.2627 231.506 43.452C230.873 43.9967 230.151 44.269 229.34 44.269C228.681 44.269 228.029 44.0727 227.383 43.68C226.75 43.2747 226.23 42.7363 225.825 42.065C225.42 41.381 225.217 40.6463 225.217 39.861C225.217 39.063 225.413 38.3283 225.806 37.657C226.211 36.973 226.75 36.4347 227.421 36.042C228.092 35.6493 228.833 35.453 229.644 35.453ZM229.644 42.179C230.252 42.179 230.759 41.9573 231.164 41.514C231.582 41.0707 231.791 40.5197 231.791 39.861C231.791 39.2023 231.582 38.6513 231.164 38.208C230.759 37.7647 230.252 37.543 229.644 37.543C229.049 37.543 228.542 37.7647 228.124 38.208C227.706 38.6513 227.497 39.2023 227.497 39.861C227.497 40.5197 227.706 41.0707 228.124 41.514C228.542 41.9573 229.049 42.179 229.644 42.179Z" fill="#1F2041"/>
<path d="M60.1755 41.0156V42.9844H47.988L53.5661 48.6094L52.1599 50.0156L44.1443 42L52.1599 33.9844L53.5661 35.3906L47.988 41.0156H60.1755Z" fill="#BC9CFF"/>
<path d="M307.363 33.9844L315.379 42L307.363 50.0156L305.957 48.6094L311.535 42.9844H299.347V41.0156H311.535L305.957 35.3906L307.363 33.9844Z" fill="#BC9CFF"/>
<defs>
<filter id="filter0_d" x="0" y="0" width="360" height="409" filterUnits="userSpaceOnUse" color-interpolation-filters="sRGB">
<feFlood flood-opacity="0" result="BackgroundImageFix"/>
<feColorMatrix in="SourceAlpha" type="matrix" values="0 0 0 0 0 0 0 0 0 0 0 0 0 0 0 0 0 0 127 0"/>
<feOffset dy="10"/>
<feGaussianBlur stdDeviation="10"/>
<feColorMatrix type="matrix" values="0 0 0 0 0.121569 0 0 0 0 0.12549 0 0 0 0 0.254902 0 0 0 0.05 0"/>
<feBlend mode="normal" in2="BackgroundImageFix" result="effect1_dropShadow"/>
<feBlend mode="normal" in="SourceGraphic" in2="effect1_dropShadow" result="shape"/>
</filter>
<linearGradient id="paint0_linear" x1="140.887" y1="244" x2="140.887" y2="284" gradientUnits="userSpaceOnUse">
<stop stop-color="#BC9CFF"/>
<stop offset="1" stop-color="#8BA4F9"/>
</linearGradient>
<linearGradient id="paint1_linear" x1="180.762" y1="164" x2="180.762" y2="204" gradientUnits="userSpaceOnUse">
<stop stop-color="#6FCF97"/>
<stop offset="1" stop-color="#66D2EA"/>
</linearGradient>
<linearGradient id="paint2_linear" x1="62.133" y1="244" x2="62.133" y2="284" gradientUnits="userSpaceOnUse">
<stop stop-color="#BC9CFF"/>
<stop offset="1" stop-color="#8BA4F9"/>
</linearGradient>
<linearGradient id="paint3_linear" x1="221.633" y1="244" x2="221.633" y2="284" gradientUnits="userSpaceOnUse">
<stop stop-color="#BC9CFF"/>
<stop offset="1" stop-color="#8BA4F9"/>
</linearGradient>
</defs>
</svg>
